<mxfile host="65bd71144e">
    <diagram id="DADCjSHD4bedUIJ3eTAV" name="Página-1">
        <mxGraphModel dx="960" dy="499" grid="1" gridSize="10" guides="1" tooltips="1" connect="1" arrows="1" fold="1" page="1" pageScale="1" pageWidth="827" pageHeight="1169" math="0" shadow="0">
            <root>
                <mxCell id="0"/>
                <mxCell id="1" parent="0"/>
                <mxCell id="3" value="c1:circulo" style="swimlane;fontStyle=1" vertex="1" parent="1">
                    <mxGeometry x="30" y="170" width="180" height="80" as="geometry"/>
                </mxCell>
                <mxCell id="5" value="Color = “Negro”&lt;br/&gt;Diámetro = 1" style="text;html=1;align=center;verticalAlign=middle;resizable=0;points=[];autosize=1;strokeColor=none;fillColor=none;" vertex="1" parent="3">
                    <mxGeometry x="35" y="40" width="110" height="40" as="geometry"/>
                </mxCell>
                <mxCell id="6" value="r1:rectangulo" style="swimlane;" vertex="1" parent="1">
                    <mxGeometry x="260" y="165" width="150" height="90" as="geometry"/>
                </mxCell>
                <mxCell id="8" value="Longitud = 3&lt;br/&gt;Anchur a = 1&lt;br/&gt;Color = “Naranja”" style="text;html=1;align=center;verticalAlign=middle;resizable=0;points=[];autosize=1;strokeColor=none;fillColor=none;" vertex="1" parent="6">
                    <mxGeometry x="30" y="30" width="120" height="60" as="geometry"/>
                </mxCell>
                <mxCell id="9" value="c2:Cuadrado" style="swimlane;movable=1;resizable=1;rotatable=1;deletable=1;editable=1;connectable=1;" vertex="1" parent="1">
                    <mxGeometry x="470" y="170" width="160" height="90" as="geometry"/>
                </mxCell>
                <mxCell id="10" value="Longitud = 3&lt;br/&gt;Anchur a = 1&lt;br/&gt;Color = “Naranja”" style="text;html=1;align=center;verticalAlign=middle;resizable=0;points=[];autosize=1;strokeColor=none;fillColor=none;" vertex="1" parent="9">
                    <mxGeometry x="30" y="30" width="120" height="60" as="geometry"/>
                </mxCell>
                <mxCell id="11" value="c2:Cuadrado" style="swimlane;movable=1;resizable=1;rotatable=1;deletable=1;editable=1;connectable=1;" vertex="1" parent="1">
                    <mxGeometry x="700" y="170" width="160" height="90" as="geometry"/>
                </mxCell>
                <mxCell id="15" value="Color = “Amarillo”&lt;br/&gt;Eje Mayor = 3&lt;br/&gt;Eje Menor = 1&amp;nbsp;" style="text;html=1;align=center;verticalAlign=middle;resizable=0;points=[];autosize=1;strokeColor=none;fillColor=none;" vertex="1" parent="11">
                    <mxGeometry x="20" y="30" width="120" height="60" as="geometry"/>
                </mxCell>
            </root>
        </mxGraphModel>
    </diagram>
</mxfile>